<?xml version="1.0" encoding="UTF-8"?><svg id="a" xmlns="http://www.w3.org/2000/svg" viewBox="0 0 1000 1000"><defs><style>.b{fill:#3ab07c;}.b,.c,.d,.e{fill-rule:evenodd;}.c{fill:#e11f5b;}.d{fill:#ecb22c;}.e{fill:#44c0eb;}</style></defs><path class="e" d="m369.05,8.02c-54.28.04-98.22,44.09-98.18,98.38-.04,54.28,43.93,98.34,98.22,98.38h98.22v-98.34c.04-54.28-43.93-98.34-98.26-98.42t0,0m0,262.39H107.22c-54.28.04-98.26,44.09-98.22,98.38-.08,54.28,43.89,98.34,98.18,98.42h261.87c54.28-.04,98.26-44.09,98.22-98.38.04-54.32-43.93-98.38-98.22-98.42h0Z"/><path class="b" d="m991,368.78c.04-54.28-43.93-98.34-98.22-98.38-54.28.04-98.26,44.09-98.22,98.38v98.42h98.22c54.28-.04,98.26-44.09,98.22-98.42Zm-261.87,0V106.39c.04-54.24-43.89-98.3-98.18-98.38-54.28.04-98.26,44.09-98.22,98.38v262.39c-.08,54.28,43.89,98.34,98.18,98.42,54.28-.04,98.26-44.09,98.22-98.42Z"/><path class="d" d="m630.91,991.98c54.28-.04,98.26-44.09,98.22-98.38.04-54.28-43.93-98.34-98.22-98.38h-98.22v98.38c-.04,54.24,43.93,98.3,98.22,98.38Zm0-262.43h261.87c54.28-.04,98.26-44.09,98.22-98.38.08-54.28-43.89-98.34-98.18-98.42h-261.87c-54.28.04-98.26,44.09-98.22,98.38-.04,54.32,43.89,98.38,98.18,98.42h0Z"/><path class="c" d="m9,631.18c-.04,54.28,43.93,98.34,98.22,98.38,54.28-.04,98.26-44.09,98.22-98.38v-98.38h-98.22c-54.28.04-98.26,44.09-98.22,98.38Zm261.87,0v262.39c-.08,54.28,43.89,98.34,98.18,98.42,54.28-.04,98.26-44.09,98.22-98.38v-262.35c.08-54.28-43.89-98.34-98.18-98.42-54.32,0-98.26,44.05-98.22,98.34,0,0,0,.04,0,0"/></svg>